<?xml version="1.0" encoding="UTF-8" standalone="no"?>
<!-- Created with Inkscape (http://www.inkscape.org/) -->

<svg
   width="255.99998"
   height="255.99998"
   viewBox="0 0 67.733329 67.733329"
   version="1.1"
   id="svg1"
   inkscape:export-filename="logo64.svg"
   inkscape:export-xdpi="48"
   inkscape:export-ydpi="48"
   xmlns:inkscape="http://www.inkscape.org/namespaces/inkscape"
   xmlns:sodipodi="http://sodipodi.sourceforge.net/DTD/sodipodi-0.dtd"
   xmlns="http://www.w3.org/2000/svg"
   xmlns:svg="http://www.w3.org/2000/svg">
  <sodipodi:namedview
     id="namedview1"
     pagecolor="#ffffff"
     bordercolor="#000000"
     borderopacity="0.25"
     inkscape:showpageshadow="2"
     inkscape:pageopacity="0.0"
     inkscape:pagecheckerboard="0"
     inkscape:deskcolor="#d1d1d1"
     inkscape:document-units="mm">
    <inkscape:page
       x="0"
       y="0"
       width="67.73333"
       height="67.73333"
       id="page2"
       margin="0"
       bleed="0" />
  </sodipodi:namedview>
  <defs
     id="defs1">
    <filter
       inkscape:collect="always"
       style="color-interpolation-filters:sRGB"
       id="filter49"
       x="-0.12404601"
       y="-0.12404601"
       width="1.248092"
       height="1.248092">
      <feGaussianBlur
         inkscape:collect="always"
         stdDeviation="3.1250147"
         id="feGaussianBlur49" />
    </filter>
    <filter
       inkscape:collect="always"
       style="color-interpolation-filters:sRGB"
       id="filter50"
       x="-0.60593508"
       y="-0.6059352"
       width="2.2118702"
       height="2.2118704">
      <feGaussianBlur
         inkscape:collect="always"
         stdDeviation="4.0025693"
         id="feGaussianBlur50" />
    </filter>
    <filter
       inkscape:collect="always"
       style="color-interpolation-filters:sRGB"
       id="filter51"
       x="-0.17638649"
       y="-0.17638653"
       width="1.352773"
       height="1.3527731">
      <feGaussianBlur
         inkscape:collect="always"
         stdDeviation="0.58686047"
         id="feGaussianBlur51" />
    </filter>
    <filter
       inkscape:collect="always"
       style="color-interpolation-filters:sRGB"
       id="filter48"
       x="-0.15217794"
       y="-0.15588322"
       width="1.2907044"
       height="1.308564">
      <feGaussianBlur
         inkscape:collect="always"
         stdDeviation="11.156742"
         id="feGaussianBlur48" />
    </filter>
    <filter
       inkscape:collect="always"
       style="color-interpolation-filters:sRGB"
       id="filter52"
       x="-0.092493108"
       y="-0.092493108"
       width="1.1849862"
       height="1.1849862">
      <feGaussianBlur
         inkscape:collect="always"
         stdDeviation="2.1182573"
         id="feGaussianBlur52" />
    </filter>
    <filter
       inkscape:collect="always"
       style="color-interpolation-filters:sRGB"
       id="filter53"
       x="-0.41873836"
       y="-0.30375644"
       width="1.8184846"
       height="1.6075129">
      <feGaussianBlur
         inkscape:collect="always"
         stdDeviation="4.5852041"
         id="feGaussianBlur53" />
    </filter>
    <filter
       inkscape:collect="always"
       style="color-interpolation-filters:sRGB"
       id="filter51-8"
       x="-0.17638649"
       y="-0.17638653"
       width="1.352773"
       height="1.3527731">
      <feGaussianBlur
         inkscape:collect="always"
         stdDeviation="0.58686047"
         id="feGaussianBlur51-1" />
    </filter>
  </defs>
  <g
     inkscape:label="Layer 1"
     inkscape:groupmode="layer"
     id="layer1">
    <g
       id="g61"
       transform="matrix(0.57863949,0,0,0.57831206,-268.47649,-25.13914)">
      <g
         id="g53"
         transform="matrix(0.43213473,0,0,0.43213473,614.69237,74.56761)"
         style="opacity:1"
         inkscape:label="NOLABEL">
        <path
           style="fill:#ff0000;fill-opacity:1;stroke:#ff0000;stroke-width:3.65257;stroke-dasharray:none;paint-order:stroke fill markers"
           d="m -326.04661,50.217383 115.97829,-97.302467 38.47418,31.220833 -0.37418,-19.05 33.3375,1.058334 -0.79375,43.6562492 42.597914,36.5124998 -12.700004,9.525 h -18.78541 l -0.21919,99.483328 -171.23081,-0.52916 0.41957,-98.863377 -32.52494,-0.15499 z"
           id="path46"
           sodipodi:nodetypes="cccccccccccccc" />
        <path
           style="fill:#162127"
           d="M -213.2122,199.12263 H -348.67886 V -71.810685 H -77.745549 V 199.12263 Z m 65.48968,-113.432073 c 0.61833,-1.298781 1.69381,-2.553259 6.54351,-8.416521 l 3.86178,2.002551 c 21.31202,17.263875 14.45661,51.955763 1.91028,67.147263 -12.54632,15.1915 -38.37607,27.18149 -61.50382,14.01699 -23.12775,-13.1645 -33.88134,-38.99295 -26.18299,-62.000556 6.31701,-18.879278 26.45086,-32.994591 44.36177,-34.696112 17.91091,-1.701522 27.40818,4.918306 27.40818,4.918306 0.53963,-0.45816 4.63772,-6.73951 4.63772,-6.73951 -23.51808,-9.620003 -45.97067,-8.692755 -66.50804,7.312203 -12.91318,11.90192 -20.85996,27.93435 -19.59014,49.933609 1.26982,21.99926 19.39206,40.38069 31.89689,46.76997 16.37224,8.3653 32.06308,7.83068 49.29801,1.13849 17.23493,-6.6922 35.04022,-32.89625 34.74628,-52.9202 -0.29395,-20.023957 -6.37433,-31.348672 -11.95454,-37.256223 -5.5802,-5.90755 -12.68804,-10.786751 -12.39874,-10.720089 -9.38136,11.69689 -19.69477,26.484839 -29.40993,37.906092 -7.40923,-4.484243 -17.64138,3.01111 -15.10567,11.47003 1.28652,4.77421 5.81516,8.3344 10.86426,7.74442 6.91484,-0.0312 11.56111,-8.33136 8.69889,-14.44145 4.62906,-5.79796 9.50241,-13.267412 12.73643,-17.346107 17.77124,15.335817 11.85012,39.387147 -4.41682,50.550197 -14.98773,9.94356 -39.35046,2.28157 -47.12613,-16.57266 -6.97323,-17.44884 6.2542,-37.670613 19.34809,-41.722865 13.09388,-4.052253 22.57878,1.469996 22.57878,1.469996 0.21834,-0.317917 5.45804,-7.277701 5.45804,-7.277701 -28.63262,-11.108758 -49.31751,4.489918 -54.90406,24.27567 -5.58656,19.78575 5.00629,36.71078 14.21031,42.84821 9.20402,6.13743 15.25686,10.02296 27.45607,9.08342 12.19921,-0.93955 30.53803,-14.38521 33.0414,-28.10168 2.50337,-13.71648 2.07403,-25.95824 -10.74936,-39.25263 m -89.62811,56.48191 c -11.14047,-25.54893 -7.81419,-54.803173 14.04853,-79.893813 0.52466,-0.25631 -17.20632,-0.28159 -17.83615,-0.16849 0.16608,-0.81264 0.04,-26.980552 0.04,-26.980552 0.92805,-0.266975 26.32569,-0.056 26.37567,-0.0046 0.1321,0.179687 -0.0689,18.789818 -0.0168,19.648585 4.21884,-4.121268 7.4117,-5.672904 7.41879,-5.691613 0,0 -0.0282,-13.722064 0.0385,-13.840215 0.245,0.01337 21.32484,-0.01472 21.32484,-0.01472 0,0 0.10957,8.150322 0.2758,8.050803 9.72177,-2.041158 36.91969,-2.848214 51.28078,10.655471 1.08332,-3.55379 2.23403,-4.42695 2.23403,-4.42695 l 21.44833,0.192266 c 0,0 5.74828,-3.883167 5.63367,-3.870569 0,0 -38.75348,-32.61292 -38.79796,-33.293879 -0.0445,-0.68096 0.89788,-42.374489 0.87855,-42.368817 -0.0193,0.0057 -24.76492,-0.919826 -24.76492,-0.919826 0,0 -0.11697,20.9523279 -0.21622,20.8617789 -0.0992,-0.090557 -41.47395,-33.3117789 -41.87337,-32.7226099 -32.97486,28.162921 -69.24129,58.758685 -102.15421,87.009561 -0.132,0.261746 -6.46664,5.441621 -6.46664,5.441621 0,0 26.34483,0.275033 26.52172,0.226693 0.0805,0.04826 0.0647,91.871735 -0.0179,91.814115 -0.37431,0.24215 19.884,0.283 54.62506,0.29576 z"
           id="path21"
           sodipodi:nodetypes="ccccccccczzszccczsszzcccccccczsczzzzccccccccccccccszzczccccccc" />
        <circle
           style="mix-blend-mode:normal;fill:none;fill-rule:evenodd;stroke:#ff015c;stroke-width:2.64583;stroke-dasharray:none;stroke-opacity:1;filter:url(#filter49)"
           id="path44-7-9"
           cx="-173.9951"
           cy="113.3689"
           r="35.563217"
           transform="matrix(1.1014905,0,0,1.1014905,16.642622,-10.05068)" />
        <path
           style="fill:#666666;fill-opacity:0;stroke-width:1.32292;paint-order:stroke fill markers"
           id="path25"
           sodipodi:type="arc"
           sodipodi:cx="-232.36037"
           sodipodi:cy="79.981949"
           sodipodi:rx="27.689123"
           sodipodi:ry="36.856468"
           sodipodi:start="0"
           sodipodi:end="0.069649959"
           sodipodi:arc-type="slice"
           d="m -204.67124,79.981949 a 27.689123,36.856468 0 0 1 -0.0671,2.564976 l -27.62199,-2.564976 z" />
        <path
           style="fill:#666666;fill-opacity:0;stroke-width:1.32292;paint-order:stroke fill markers"
           id="path26"
           sodipodi:type="arc"
           sodipodi:cx="-262.10745"
           sodipodi:cy="71.001694"
           sodipodi:rx="13.283296"
           sodipodi:ry="21.889374"
           sodipodi:start="0"
           sodipodi:end="0.069649959"
           sodipodi:arc-type="slice"
           d="m -248.82416,71.001694 a 13.283296,21.889374 0 0 1 -0.0322,1.523361 l -13.25109,-1.523361 z" />
        <path
           style="fill:#666666;fill-opacity:0;stroke-width:1.32292;paint-order:stroke fill markers"
           id="path27"
           sodipodi:type="arc"
           sodipodi:cx="-198.12318"
           sodipodi:cy="97.194107"
           sodipodi:rx="10.289877"
           sodipodi:ry="17.025068"
           sodipodi:start="0"
           sodipodi:end="0.069649959"
           sodipodi:arc-type="slice"
           d="m -187.83331,97.194107 a 10.289877,17.025068 0 0 1 -0.0249,1.184837 l -10.26492,-1.184837 z" />
        <circle
           style="fill:none;fill-rule:evenodd;stroke:#00ff00;stroke-width:9.46653;stroke-dasharray:none"
           id="path44-7"
           cx="-174.90475"
           cy="114.07851"
           r="35.563217" />
        <ellipse
           style="mix-blend-mode:normal;fill:none;fill-rule:evenodd;stroke:#ff00ad;stroke-width:3.91555;stroke-dasharray:none;stroke-opacity:1;filter:url(#filter50)"
           id="path44-7-5-0"
           cx="-174.33626"
           cy="113.81049"
           rx="9.5422277"
           ry="9.5422258"
           transform="matrix(1.243856,0,0,1.243856,41.722795,-25.924366)" />
        <ellipse
           style="fill:#00ff00;fill-rule:evenodd;stroke:#00ff00;stroke-width:3.91555;stroke-dasharray:none;filter:url(#filter51)"
           id="path44-7-5"
           cx="-174.6897"
           cy="113.70598"
           rx="9.5422277"
           ry="9.5422258" />
        <path
           style="mix-blend-mode:normal;fill:none;fill-opacity:1;stroke:#ff004f;stroke-width:7.24124;stroke-dasharray:none;stroke-opacity:1;paint-order:stroke fill markers;filter:url(#filter48)"
           d="m -321.42022,297.58919 115.97829,-97.30246 38.47418,31.22083 -0.37418,-19.05 33.3375,1.05833 -0.79375,43.65625 42.597913,36.5125 -12.700003,9.525 c -60.50473,-21.28795 -65.57514,-30.29855 -99.76584,-34.10488 l -35.62267,2.16824 c 9.74561,0.1778 -17.99962,16.10049 -20.70718,45.71872 -2.37727,26.00508 14.79864,68.2736 22.54518,76.5382 11.34608,12.10488 -24.55741,5.0227 -57.28624,8.63907 l 1.02091,-98.86856 -32.52494,-0.15499 z"
           id="path46-8"
           sodipodi:nodetypes="ccccccccccsscccc"
           transform="matrix(0.93335909,0.00795892,0,0.92463991,-16.002642,-225.55756)" />
        <circle
           style="mix-blend-mode:normal;fill:none;fill-rule:evenodd;stroke:#ff0091;stroke-width:9.9478;stroke-dasharray:none;stroke-opacity:1;filter:url(#filter52)"
           id="path44-5"
           cx="-175.149"
           cy="113.88818"
           r="54.37009" />
        <path
           style="mix-blend-mode:normal;fill:none;fill-opacity:0;stroke:#ff008b;stroke-width:7.0059;stroke-dasharray:none;stroke-opacity:1;paint-order:stroke fill markers;filter:url(#filter53)"
           d="m -138.44775,67.984451 -34.39583,43.391659 0.52916,-2.11667 v 0"
           id="path45-9"
           transform="matrix(1.0201189,0,0,1.0201189,4.1413552,-1.8509458)" />
        <circle
           style="fill:none;fill-rule:evenodd;stroke:#00ff00;stroke-width:9.9478;stroke-dasharray:none"
           id="path44"
           cx="-174.92188"
           cy="113.81516"
           r="54.37009" />
        <path
           style="fill:none;fill-opacity:0;stroke:#00ff00;stroke-width:7.0059;stroke-dasharray:none;paint-order:stroke fill markers"
           d="m -138.34743,68.893206 -34.39583,43.391664 0.52916,-2.11667 v 0"
           id="path45" />
        <ellipse
           style="fill:#00ff00;fill-rule:evenodd;stroke:#00ff00;stroke-width:3.91555;stroke-dasharray:none;filter:url(#filter51-8)"
           id="path44-7-5-04"
           cx="-174.00493"
           cy="114.19822"
           rx="9.5422277"
           ry="9.5422258" />
      </g>
    </g>
  </g>
</svg>
